<svg width="389" height="183" viewBox="0 0 389 183" fill="none" xmlns="http://www.w3.org/2000/svg">
<path d="M186.546 99.7467V129H196.05V97.8457C196.05 93.9031 195.205 90.418 193.516 87.3906C191.826 84.3632 189.503 82.0046 186.546 80.3149C183.659 78.6252 180.315 77.7803 176.513 77.7803C172.711 77.7803 169.296 78.6604 166.269 80.4205C163.989 81.6933 162.088 83.3257 160.566 85.3175V53.5962H151.062V129H160.566V99.7467C160.566 97.2121 161.129 94.9591 162.256 92.9878C163.382 91.0165 164.931 89.4676 166.903 88.3411C168.874 87.2146 171.127 86.6514 173.662 86.6514C177.463 86.6514 180.561 87.8834 182.955 90.3476C185.349 92.8118 186.546 95.9448 186.546 99.7467Z" fill="#000000"/>
<path d="M212.721 127.31C216.03 129.141 219.761 130.056 223.915 130.056C228.139 130.056 231.836 129.141 235.004 127.31C238.242 125.409 240.777 122.804 242.608 119.495C244.438 116.186 245.353 112.349 245.353 107.984V78.8364H235.849V107.562C235.849 111.716 234.793 114.989 232.68 117.383C230.568 119.707 227.647 120.868 223.915 120.868C221.451 120.868 219.304 120.34 217.473 119.284C215.642 118.228 214.234 116.714 213.249 114.743C212.333 112.701 211.876 110.307 211.876 107.562V78.8364H202.371V107.984C202.371 112.349 203.286 116.186 205.117 119.495C206.947 122.804 209.482 125.409 212.721 127.31Z" fill="#000000"/>
<path fill-rule="evenodd" clip-rule="evenodd" d="M276.046 130.056C271.047 130.056 266.541 128.93 262.528 126.677C258.515 124.353 255.346 121.22 253.023 117.278C250.7 113.335 249.538 108.864 249.538 103.865C249.538 98.937 250.665 94.5015 252.918 90.5588C255.241 86.6161 258.339 83.5183 262.211 81.2654C266.154 78.942 270.554 77.7803 275.412 77.7803C280.059 77.7803 284.142 78.8364 287.662 80.9485C291.253 83.0607 294.034 85.9825 296.005 89.714C298.047 93.4454 299.068 97.6697 299.068 102.387C299.068 103.091 299.033 103.865 298.962 104.71C298.892 105.485 298.751 106.4 298.54 107.456H259.255C259.59 109.41 260.188 111.205 261.049 112.842C262.457 115.447 264.464 117.489 267.069 118.967C269.674 120.375 272.666 121.079 276.046 121.079C278.862 121.079 281.432 120.587 283.755 119.601C286.149 118.615 288.19 117.137 289.88 115.165L296.005 121.396C293.612 124.212 290.655 126.36 287.134 127.838C283.685 129.317 279.988 130.056 276.046 130.056ZM260.944 94.5719C260.155 96.0672 259.598 97.7217 259.275 99.5355H289.804C289.545 97.4592 289.007 95.6287 288.19 94.0439C286.994 91.6501 285.304 89.8196 283.121 88.5523C280.939 87.2146 278.299 86.5457 275.201 86.5457C271.962 86.5457 269.111 87.2498 266.646 88.6579C264.182 90.066 262.281 92.0373 260.944 94.5719Z" fill="#000000"/>
<path d="M305.207 125.832C307.319 127.169 309.608 128.226 312.072 129C314.606 129.704 317.282 130.056 320.098 130.056C325.73 130.056 330.201 128.683 333.51 125.937C336.89 123.192 338.579 119.46 338.579 114.743C338.579 111.645 337.91 109.146 336.573 107.245C335.305 105.344 333.651 103.83 331.609 102.704C329.567 101.577 327.42 100.697 325.167 100.064C322.914 99.3595 320.732 98.6906 318.619 98.057C316.578 97.4233 314.923 96.6489 313.656 95.7336C312.389 94.8183 311.755 93.5158 311.755 91.8261C311.755 90.1364 312.459 88.8339 313.867 87.9186C315.346 86.933 317.458 86.4401 320.204 86.4401C322.809 86.4401 325.132 86.933 327.174 87.9186C329.286 88.9043 331.046 90.3124 332.454 92.1429L338.579 86.0177C336.608 83.2719 334.073 81.2302 330.976 79.8925C327.948 78.4844 324.463 77.7803 320.52 77.7803C316.789 77.7803 313.585 78.3788 310.91 79.5756C308.305 80.7725 306.263 82.4975 304.785 84.7504C303.306 86.933 302.567 89.538 302.567 92.5654C302.567 95.5928 303.201 98.0218 304.468 99.8523C305.806 101.683 307.495 103.126 309.537 104.182C311.579 105.238 313.726 106.118 315.979 106.822C318.303 107.456 320.485 108.125 322.527 108.829C324.569 109.463 326.223 110.307 327.49 111.364C328.828 112.349 329.497 113.757 329.497 115.588C329.497 117.418 328.687 118.862 327.068 119.918C325.449 120.903 323.161 121.396 320.204 121.396C317.247 121.396 314.571 120.868 312.177 119.812C309.784 118.686 307.671 116.996 305.841 114.743L299.716 120.868C301.265 122.769 303.095 124.424 305.207 125.832Z" fill="#000000"/>
<path d="M329.682 61.9933V63.8649H327.429V69.559H325.29V63.8649H323.037V61.9933H329.682Z" fill="#FFFFFE"/>
<path d="M338.463 61.8799V69.5931H336.325V65.8499L334.758 67.6081H334.117L332.55 65.8499V69.5931H330.412V61.8799H331.167L334.438 65.1693L337.709 61.8799H338.463Z" fill="#000000"/>
<path d="M59.9129 74.3034C62.8728 83.7936 72.9656 89.0876 82.4558 86.1278C91.9461 83.168 114.424 67.7159 111.464 58.2257C108.504 48.7354 81.2277 48.8006 71.7374 51.7604C62.2471 54.7203 56.9531 64.8131 59.9129 74.3034Z" fill="url(#paint0_radial_5_1261)"/>
<path d="M54.1777 126.342C59.748 131.913 68.7783 131.913 74.3486 126.342C79.9189 120.772 90.0039 101.656 84.4346 96.0854C78.8643 90.5156 59.748 100.601 54.1777 106.171C48.6074 111.741 48.6074 120.772 54.1777 126.342Z" fill="url(#paint1_radial_5_1261)"/>
<path d="M107.478 131.819C117.081 134.392 126.951 128.693 129.524 119.091C132.096 109.488 131.057 82.2319 121.455 79.6587C111.852 77.0859 97.324 100.171 94.7508 109.773C92.1775 119.375 97.8758 129.246 107.478 131.819Z" fill="url(#paint2_linear_5_1261)"/>
<defs>
<radialGradient id="paint0_radial_5_1261" cx="0" cy="0" r="1" gradientUnits="userSpaceOnUse" gradientTransform="translate(111.711 57.7778) rotate(162.759) scale(75.9111 108.145)">
<stop stop-color="#3E96F7"/>
<stop offset="0.48585" stop-color="#9301FF"/>
<stop offset="0.71428" stop-color="#CC01FE"/>
</radialGradient>
<radialGradient id="paint1_radial_5_1261" cx="0" cy="0" r="1" gradientUnits="userSpaceOnUse" gradientTransform="translate(89.0918 94) rotate(146.921) scale(65.0423 150.771)">
<stop offset="0.0977501" stop-color="#D730A2"/>
<stop offset="0.467786" stop-color="#FD291C"/>
<stop offset="0.700031" stop-color="#FCA13D"/>
</radialGradient>
<linearGradient id="paint2_linear_5_1261" x1="117.092" y1="81.5" x2="117.092" y2="133" gradientUnits="userSpaceOnUse">
<stop stop-color="#9F58EE"/>
<stop offset="1" stop-color="#56F77C"/>
</linearGradient>
</defs>
</svg>
